<?xml version="1.0" standalone="no"?>
<!DOCTYPE svg PUBLIC "-//W3C//DTD SVG 20010904//EN"
 "http://www.w3.org/TR/2001/REC-SVG-20010904/DTD/svg10.dtd">
<svg version="1.0" xmlns="http://www.w3.org/2000/svg"
 width="515.000000pt" height="515.000000pt" viewBox="0 0 515.000000 515.000000"
 preserveAspectRatio="xMidYMid meet">
<metadata>
Created by potrace 1.14, written by Peter Selinger 2001-2017
</metadata>
<g transform="translate(0.000000,515.000000) scale(0.100000,-0.100000)"
fill="#000000" stroke="none">
<path d="M2310 5129 c-101 -9 -194 -28 -392 -80 -1033 -273 -1812 -1195 -1900
-2251 -28 -324 53 -850 172 -1123 70 -161 170 -361 210 -420 15 -22 48 -71 74
-110 108 -161 207 -280 341 -405 148 -139 355 -290 518 -378 456 -245 927
-364 1347 -341 171 10 184 11 390 54 244 51 362 91 615 208 259 119 584 365
810 612 289 317 534 819 604 1236 54 323 41 736 -35 1064 -72 318 -339 837
-528 1029 -17 17 -51 55 -75 84 -48 58 -265 255 -344 312 -27 19 -61 45 -76
57 -52 41 -265 166 -351 206 -298 138 -478 191 -838 246 -81 12 -410 13 -542
0z m435 -99 c151 -12 262 -32 445 -81 180 -48 256 -74 390 -133 312 -139 561
-313 775 -544 254 -272 408 -524 545 -893 30 -82 93 -356 110 -482 13 -102 13
-394 -1 -533 -15 -151 -62 -382 -105 -516 -82 -256 -259 -599 -402 -779 -96
-122 -353 -376 -452 -446 -90 -64 -274 -179 -325 -202 -364 -167 -510 -212
-849 -262 -128 -18 -180 -20 -360 -16 -257 5 -380 25 -673 107 -244 68 -573
246 -811 437 -321 259 -647 726 -770 1105 -114 348 -139 517 -129 871 5 178
11 248 31 352 99 512 328 957 666 1296 302 303 765 558 1210 667 204 51 475
71 705 52z"/>
<path d="M2470 4918 c-3 -3 -47 -8 -98 -12 -310 -22 -625 -120 -902 -282 -36
-20 -83 -47 -105 -58 -108 -55 -285 -196 -431 -341 -83 -82 -169 -172 -191
-200 -45 -56 -160 -237 -208 -329 -18 -34 -44 -81 -57 -106 -48 -90 -118 -295
-158 -464 -49 -209 -54 -258 -55 -501 0 -362 13 -444 125 -793 77 -237 119
-324 256 -532 178 -270 449 -538 697 -688 306 -187 653 -307 1017 -352 109
-13 351 -13 460 0 339 42 657 148 940 315 174 102 322 217 468 365 69 69 184
202 213 246 14 21 51 77 81 124 173 264 303 615 355 955 21 142 24 464 5 590
-88 573 -313 1030 -688 1395 -205 200 -359 309 -601 428 -248 122 -489 194
-738 222 -110 12 -378 24 -385 18z m415 -817 c138 -26 210 -45 240 -65 33 -21
58 -79 51 -115 -3 -14 -10 -87 -16 -161 -6 -74 -22 -251 -36 -394 -14 -142
-22 -262 -17 -267 12 -12 151 -27 362 -39 190 -11 220 -18 261 -62 31 -34 27
-95 -10 -146 -38 -52 -46 -62 -135 -163 -17 -19 -56 -63 -86 -99 -52 -61 -73
-85 -210 -234 -30 -34 -61 -68 -67 -76 -108 -138 -142 -186 -142 -197 0 -7 3
-13 6 -13 3 0 65 -9 137 -20 73 -11 238 -33 367 -50 241 -32 298 -48 338 -91
33 -35 30 -99 -8 -163 -180 -301 -497 -562 -810 -666 -127 -41 -259 -67 -417
-82 -115 -10 -149 -10 -270 6 -158 20 -293 52 -408 96 -87 34 -248 117 -253
131 -2 5 -8 9 -13 9 -36 0 -273 209 -369 325 -171 208 -282 451 -335 734 -23
129 -21 410 6 547 37 196 83 320 175 479 16 28 37 66 47 85 9 19 32 51 50 70
18 19 54 62 79 95 57 72 178 184 262 242 34 23 66 45 71 50 29 24 182 106 265
141 139 60 257 88 480 116 69 8 307 -5 405 -23z"/>
<path d="M2530 3974 c-217 -24 -403 -75 -560 -154 -144 -72 -243 -144 -371
-270 -197 -194 -301 -374 -369 -635 -66 -254 -66 -477 0 -718 46 -167 83 -252
169 -389 157 -253 352 -423 615 -540 175 -78 377 -118 588 -118 371 0 718 149
996 428 107 107 178 202 169 225 -5 13 -137 36 -334 57 -51 6 -155 21 -232 34
-122 21 -150 30 -233 72 -53 28 -113 68 -139 94 -58 57 -69 102 -69 278 0 70
-4 133 -9 140 -4 7 -37 19 -72 27 -93 19 -227 73 -260 104 -59 57 -62 105 -13
198 20 37 77 145 127 238 182 342 271 512 307 580 19 39 64 117 99 174 40 66
59 107 53 113 -27 27 -366 72 -462 62z"/>
<path d="M2954 3485 c-23 -32 -181 -321 -255 -465 -24 -47 -65 -122 -91 -167
-27 -45 -51 -96 -54 -113 -6 -28 -3 -31 37 -49 24 -11 81 -27 127 -35 81 -15
153 -48 184 -84 12 -13 17 -53 20 -182 2 -91 8 -171 11 -178 13 -19 35 -3 89
67 28 36 61 75 73 86 11 11 47 51 80 90 33 38 73 83 89 100 15 16 40 46 55 65
14 19 56 67 92 105 115 121 133 145 120 158 -7 7 -77 14 -189 19 -295 13 -395
33 -408 82 -9 39 1 175 25 330 12 77 21 153 19 170 l-3 31 -21 -30z"/>
</g>
</svg>
